<?xml version="1.0" encoding="utf-8"?>
<!-- Generator: Adobe Illustrator 24.3.0, SVG Export Plug-In . SVG Version: 6.00 Build 0)  -->
<svg version="1.1" id="Слой_1" xmlns="http://www.w3.org/2000/svg" xmlns:xlink="http://www.w3.org/1999/xlink" x="0px" y="0px"
	 viewBox="0 0 446.5 230.4" style="enable-background:new 0 0 446.5 230.4;" xml:space="preserve">
<style type="text/css">
	.st0{fill:#5F5C5D;}
	.st1{fill:#189CD9;}
</style>
<g>
	<path class="st0" d="M70.8,98v63.2c0,0.4-0.4,0.8-0.8,0.8H58.7c-0.4,0-0.8-0.4-0.8-0.8v-21.9l1-21.7h-1l-18.4,26.3h-2.1L19,117.5
		h-1l1,21.7v21.9c0,0.4-0.4,0.8-0.8,0.8H6.9c-0.4,0-0.8-0.4-0.8-0.8V98c0-0.4,0.4-0.8,0.8-0.8h11.3c0.6,0,1,0.3,1.3,0.7L38.4,125
		l18.9-27.1c0.3-0.4,0.8-0.7,1.3-0.7H70C70.5,97.1,70.8,97.5,70.8,98 M141.3,97.1h-11.6c-0.6,0-1,0.3-1.3,0.7l-28.4,41h-1l1-22.2V98
		c0-0.5-0.4-0.8-0.8-0.8H87.8c-0.4,0-0.8,0.4-0.8,0.8v63.1c0,0.4,0.4,0.8,0.8,0.8h9.3c0.6,0,1-0.3,1.3-0.7L129,117h1l-1,22.2v21.9
		l0,0c0,0.4,0.4,0.8,0.8,0.8h11.3c0.4,0,0.8-0.4,0.8-0.8V98C142.1,97.5,141.7,97.1,141.3,97.1 M271.8,97.1h-11.6
		c-0.5,0-1,0.3-1.3,0.7l-28.4,40.9h-1l1-22.2V98c0-0.5-0.4-0.8-0.8-0.8h-11.3c-0.4,0-0.8,0.4-0.8,0.8v63.1c0,0.4,0.4,0.8,0.8,0.8
		h9.3c0.5,0,1-0.3,1.3-0.7l30.6-44.2h1l-1,22.2v21.9l0,0c0,0.4,0.4,0.8,0.8,0.8h11.3c0.4,0,0.8-0.4,0.8-0.8V98
		C272.6,97.5,272.2,97.1,271.8,97.1 M206.1,156.2l-4.5-9.1c-0.2-0.3-0.7-0.6-1.2-0.3c-3.7,2.6-8.6,4.1-14.1,4.1
		c-11.8,0-20.1-9.6-20.1-21.4c0-11.8,8.3-21.4,20.1-21.4c5.5,0,10.4,1.5,14.1,4.1c0.4,0.2,0.9,0.1,1.1-0.3l4.5-9.1
		c0.2-0.5,0.1-0.9-0.3-1.2c-5.5-3.9-12.3-6.2-19.5-6.2c-18.8,0-34,15.2-34,34s15.2,34,34,34c7.3,0,14-2.3,19.5-6.2
		C206.3,157.1,206.4,156.6,206.1,156.2 M336.2,156.2l-4.5-9.1c-0.2-0.3-0.7-0.6-1.2-0.3c-3.7,2.6-8.6,4.1-14.1,4.1
		c-11.8,0-20.1-9.6-20.1-21.4c0-11.8,8.3-21.4,20.1-21.4c5.5,0,10.4,1.5,14.1,4.1c0.4,0.2,0.9,0.1,1.1-0.3l4.5-9.1
		c0.2-0.5,0.1-0.9-0.3-1.2c-5.5-3.9-12.3-6.2-19.5-6.2c-18.8,0-34,15.2-34,34s15.2,34,34,34c7.3,0,14-2.3,19.5-6.2
		C336.3,157.1,336.5,156.6,336.2,156.2"/>
	<path class="st1" d="M394.6,81c0,8.9-7.2,16.2-16.2,16.2S362.2,90,362.2,81s7.2-16.2,16.2-16.2S394.6,72,394.6,81 M378.5,0.8
		c0-0.4-0.4-0.8-0.8-0.8c-44.1,0.4-79.7,36.1-80.2,80.2c0,0.4,0.4,0.8,0.8,0.8h11.4c0.4,0,0.8-0.4,0.8-0.8C311,43,341.2,13,378.5,13
		L378.5,0.8L378.5,0.8z M378.5,13L378.5,13v12.1c0,0.4,0.3,0.8,0.9,0.8c30,0.5,54.2,24.9,54.2,55s-24.2,54.6-54.2,55
		c-0.5,0-0.8,0.4-0.8,0.8V148c0,0.4,0.3,0.8,0.8,0.8c37.2-0.4,67.2-30.7,67.2-68C446.5,43.4,416,13,378.5,13 M378.5,38.9
		c-11.3,0-21.6,4.5-29.2,11.8c-0.3,0.3-0.3,0.8,0,1.1l8,8c0.3,0.3,0.8,0.3,1.1,0c5.2-4.9,12.3-8,20-8c16.1,0,29.1,13,29.1,29.1
		s-13,29.1-29.1,29.1c-7.8,0-14.8-3-20-8c-0.4-0.3-0.8-0.3-1.1,0l-8,8c-0.3,0.3-0.3,0.8,0,1.1c7.6,7.3,17.9,11.8,29.2,11.8
		c23.2,0,42.1-18.9,42.1-42.1C420.5,57.7,401.7,38.9,378.5,38.9"/>
</g>
<path class="st0" d="M13.3,170c4.3,0,8.3,2.9,8.3,8.8v3.9c0,5.8-4,8.8-8.3,8.8h-0.4c-4.3,0-8.3-2.9-8.3-8.8v-3.9
	c0-5.8,4-8.8,8.3-8.8H13.3z M13,174c-2.3,0-3.7,1.6-3.7,4.4v4.7c0,2.8,1.4,4.4,3.7,4.4h0.2c2.3,0,3.7-1.5,3.7-4.4v-4.7
	c0-2.8-1.4-4.4-3.7-4.4H13z"/>
<path class="st0" d="M31.3,175.9c1.4,0,3.1,0.5,4,1c0.2,0.1,0.3,0.2,0.3,0.5v2.7c0,0.2-0.2,0.4-0.4,0.3c-1.4-0.6-2.3-1-3.3-1h-0.2
	c-1.8,0-3.2,1.2-3.2,3.6v1.4c0,2.4,1.4,3.6,3.2,3.6h0.2c0.9,0,1.9-0.4,3.3-1c0.2-0.1,0.4,0,0.4,0.3v2.7c0,0.3-0.1,0.5-0.3,0.5
	c-0.9,0.4-2.6,1-4,1H31c-3.6,0-6.9-2.3-6.9-7V183c0-4.7,3.2-7,6.9-7h0.3V175.9z"/>
<path class="st0" d="M51.7,190.5c0.1,0.3,0,0.5-0.3,0.5h-4c-0.2,0-0.4-0.1-0.5-0.3l-3.3-5.6h-1.4v5.5c0,0.2-0.2,0.4-0.4,0.4h-3.6
	c-0.2,0-0.4-0.2-0.4-0.4v-14c0-0.2,0.2-0.4,0.4-0.4h3.6c0.2,0,0.4,0.2,0.4,0.4v5.1h1.4l2.9-5.2c0.1-0.2,0.3-0.3,0.5-0.3h3.8
	c0.3,0,0.4,0.3,0.3,0.5l-3.7,6.5L51.7,190.5z"/>
<path class="st0" d="M59.2,175.9c3.7,0,6.9,2.4,6.9,6.7v2.2c0,4.3-3.2,6.7-6.9,6.7h-0.3c-3.7,0-6.9-2.4-6.9-6.7v-2.2
	c0-4.3,3.2-6.7,6.9-6.7H59.2z M58.9,179.4c-1.5,0-2.5,1-2.5,3v2.6c0,2,1,3,2.5,3h0.2c1.5,0,2.5-1,2.5-3v-2.6c0-2-1-3-2.5-3H58.9z"/>
<path class="st0" d="M82,176.3c0.2,0,0.4,0.2,0.4,0.4v14c0,0.2-0.2,0.4-0.4,0.4h-3.6c-0.2,0-0.4-0.2-0.4-0.4v-11h-3.4l-0.6,7.2
	c-0.2,2.7-1.4,4.5-4.3,4.5h-0.2c-0.9,0-1.8-0.3-2.1-0.5c-0.2-0.1-0.3-0.2-0.3-0.4V188c0-0.2,0.1-0.4,0.4-0.3
	c0.3,0.1,0.6,0.2,0.8,0.2h0.1c0.7,0,1.1-0.5,1.2-1.6l0.8-9.7c0-0.2,0.2-0.4,0.4-0.4H82V176.3z"/>
<path class="st0" d="M92,181c3.6,0,5.5,1.8,5.5,4.7v0.3c0,2.9-1.8,5-5.5,5h-6.9c-0.2,0-0.4-0.2-0.4-0.4v-14c0-0.2,0.2-0.4,0.4-0.4
	h3.6c0.2,0,0.4,0.2,0.4,0.4v4.3L92,181L92,181z M91.1,187.7c1.3,0,2-0.7,2-1.6v-0.2c0-1-0.7-1.6-2-1.6h-1.9v3.5L91.1,187.7
	L91.1,187.7z"/>
<path class="st0" d="M106.5,175.9c1.4,0,3.1,0.5,4,1c0.2,0.1,0.3,0.2,0.3,0.5v2.7c0,0.2-0.2,0.4-0.4,0.3c-1.4-0.6-2.3-1-3.3-1H107
	c-1.8,0-3.2,1.2-3.2,3.6v1.4c0,2.4,1.4,3.6,3.2,3.6h0.2c0.9,0,1.9-0.4,3.3-1c0.2-0.1,0.4,0,0.4,0.3v2.7c0,0.3-0.1,0.5-0.3,0.5
	c-0.9,0.4-2.6,1-4,1h-0.3c-3.6,0-6.9-2.3-6.9-7V183c0-4.7,3.2-7,6.9-7h0.2V175.9z"/>
<path class="st0" d="M126.9,190.5c0.1,0.3,0,0.5-0.3,0.5h-4c-0.2,0-0.4-0.1-0.5-0.3l-3.3-5.6h-1.4v5.5c0,0.2-0.2,0.4-0.4,0.4h-3.6
	c-0.2,0-0.4-0.2-0.4-0.4v-14c0-0.2,0.2-0.4,0.4-0.4h3.6c0.2,0,0.4,0.2,0.4,0.4v5.1h1.4l2.9-5.2c0.1-0.2,0.3-0.3,0.5-0.3h3.8
	c0.3,0,0.4,0.3,0.3,0.5l-3.6,6.5L126.9,190.5z"/>
<path class="st0" d="M141.8,176.3c0.2,0,0.4,0.2,0.4,0.4v14c0,0.2-0.2,0.4-0.4,0.4h-3.6c-0.2,0-0.4-0.2-0.4-0.4v-5l0.1-3.2h-0.4
	l-1.3,3l-2.6,5.2c-0.1,0.2-0.2,0.4-0.4,0.4h-4.3c-0.2,0-0.4-0.2-0.4-0.4v-14c0-0.2,0.2-0.4,0.4-0.4h3.6c0.2,0,0.4,0.2,0.4,0.4v4.9
	l-0.1,3.4h0.4l1.4-3.1l2.5-5.1c0.1-0.2,0.2-0.4,0.4-0.4L141.8,176.3z"/>
<path class="st0" d="M157.8,176.3c0.2,0,0.4,0.2,0.4,0.4v14c0,0.2-0.2,0.4-0.4,0.4h-3.6c-0.2,0-0.4-0.2-0.4-0.4v-5l0.1-3.2h-0.4
	l-1.3,3l-2.6,5.2c-0.1,0.2-0.2,0.4-0.4,0.4h-4.3c-0.2,0-0.4-0.2-0.4-0.4v-14c0-0.2,0.2-0.4,0.4-0.4h3.6c0.2,0,0.4,0.2,0.4,0.4v4.9
	l-0.1,3.4h0.4l1.4-3.1l2.5-5.1c0.1-0.2,0.2-0.4,0.4-0.4L157.8,176.3z M155.1,170.6c0.3-0.1,0.5,0,0.5,0.3v2.2c0,0.2-0.1,0.4-0.2,0.5
	c-0.6,0.4-2.1,1.1-3.9,1.1s-3.3-0.6-3.9-1.1c-0.1-0.1-0.2-0.2-0.2-0.5v-2.2c0-0.3,0.2-0.4,0.5-0.3c1.1,0.5,2.1,0.9,3.7,0.9
	S153.9,171.1,155.1,170.6L155.1,170.6z"/>
<path class="st0" d="M179.9,176.3c0.2,0,0.4,0.2,0.4,0.4v14c0,0.2-0.2,0.4-0.4,0.4h-3.6c-0.2,0-0.4-0.2-0.4-0.4v-11h-4.8v11
	c0,0.2-0.2,0.4-0.4,0.4h-3.6c-0.2,0-0.4-0.2-0.4-0.4v-14c0-0.2,0.2-0.4,0.4-0.4H179.9z"/>
<path class="st0" d="M189.7,175.9c3.7,0,6.9,2.4,6.9,6.7v2.2c0,4.3-3.2,6.7-6.9,6.7h-0.3c-3.7,0-6.9-2.4-6.9-6.7v-2.2
	c0-4.3,3.2-6.7,6.9-6.7H189.7z M189.4,179.4c-1.5,0-2.5,1-2.5,3v2.6c0,2,1,3,2.5,3h0.2c1.5,0,2.5-1,2.5-3v-2.6c0-2-1-3-2.5-3H189.4z
	"/>
<path class="st0" d="M212.5,176.3c0.2,0,0.4,0.2,0.4,0.4v14c0,0.2-0.2,0.4-0.4,0.4h-3.6c-0.2,0-0.4-0.2-0.4-0.4v-11h-3.4l-0.5,7.2
	c-0.2,2.7-1.5,4.5-4.3,4.5h-0.2c-0.9,0-1.8-0.3-2.1-0.5c-0.2-0.1-0.3-0.2-0.3-0.4V188c0-0.2,0.1-0.4,0.4-0.3
	c0.3,0.1,0.6,0.2,0.8,0.2h0.1c0.7,0,1.1-0.5,1.2-1.6l0.8-9.7c0-0.2,0.2-0.4,0.4-0.4h11.1V176.3z"/>
<path class="st0" d="M228.5,176.3c0.2,0,0.4,0.2,0.4,0.4v14c0,0.2-0.2,0.4-0.4,0.4h-3.6c-0.2,0-0.4-0.2-0.4-0.4v-5l0.1-3.2h-0.4
	l-1.3,3l-2.6,5.2c-0.1,0.2-0.2,0.4-0.4,0.4h-4.3c-0.2,0-0.4-0.2-0.4-0.4v-14c0-0.2,0.2-0.4,0.4-0.4h3.6c0.2,0,0.4,0.2,0.4,0.4v4.9
	l-0.1,3.4h0.4l1.4-3.1l2.5-5.1c0.1-0.2,0.2-0.4,0.4-0.4L228.5,176.3z"/>
<path class="st0" d="M243.1,176.3c0.2,0,0.4,0.2,0.4,0.4v2.6c0,0.2-0.2,0.4-0.4,0.4h-3.9v11c0,0.2-0.2,0.4-0.4,0.4h-3.6
	c-0.2,0-0.4-0.2-0.4-0.4v-11h-3.9c-0.2,0-0.4-0.2-0.4-0.4v-2.6c0-0.2,0.2-0.4,0.4-0.4H243.1z"/>
<path class="st0" d="M251.8,175.9c3.5,0,6.2,2.2,6.2,6.5v1.6c0,0.4-0.3,0.6-0.6,0.6h-8.1v0.5c0,2,1.4,3,3.2,3h0.1
	c1.3,0,2.7-0.5,4.3-1c0.2-0.1,0.4,0,0.4,0.3v2.7c0,0.3-0.1,0.5-0.3,0.5c-0.9,0.4-3.3,1-5,1h-0.3c-3.8,0-6.9-2.3-6.9-6.9V183
	c0-4.5,3.1-7,6.7-7L251.8,175.9L251.8,175.9z M251.5,179.1c-1.4,0-2.2,1-2.3,2.9h4.7c0.1-2-0.6-2.9-2.2-2.9H251.5z"/>
<path class="st0" d="M272.8,176.3c0.3,0,0.4,0.3,0.3,0.5l-4,6.8l4.2,7c0.1,0.2,0,0.5-0.3,0.5h-3.9c-0.2,0-0.4-0.1-0.5-0.3l-1.9-3.2
	l-0.6-1.8H266l-0.6,1.8l-1.9,3.2c-0.1,0.2-0.3,0.3-0.5,0.3h-3.9c-0.3,0-0.4-0.3-0.3-0.5l4.2-7l-4-6.8c-0.1-0.2,0-0.5,0.3-0.5h3.8
	c0.2,0,0.4,0.1,0.5,0.3l1.8,3l0.6,1.8h0.2l0.6-1.8l1.8-3c0.1-0.2,0.3-0.3,0.5-0.3H272.8z"/>
<path class="st0" d="M288.1,176.3c0.2,0,0.4,0.2,0.4,0.4v14c0,0.2-0.2,0.4-0.4,0.4h-3.6c-0.2,0-0.4-0.2-0.4-0.4v-5.4h-4.8v5.4
	c0,0.2-0.2,0.4-0.4,0.4h-3.6c-0.2,0-0.4-0.2-0.4-0.4v-14c0-0.2,0.2-0.4,0.4-0.4h3.6c0.2,0,0.4,0.2,0.4,0.4v5.2h4.8v-5.2
	c0-0.2,0.2-0.4,0.4-0.4H288.1z"/>
<path class="st0" d="M304.1,176.3c0.2,0,0.4,0.2,0.4,0.4v14c0,0.2-0.2,0.4-0.4,0.4h-3.6c-0.2,0-0.4-0.2-0.4-0.4v-5l0.1-3.2h-0.4
	l-1.3,3l-2.6,5.2c-0.1,0.2-0.2,0.4-0.4,0.4h-4.3c-0.2,0-0.4-0.2-0.4-0.4v-14c0-0.2,0.2-0.4,0.4-0.4h3.6c0.2,0,0.4,0.2,0.4,0.4v4.9
	l-0.1,3.4h0.4l1.4-3.1l2.5-5.1c0.1-0.2,0.2-0.4,0.4-0.4L304.1,176.3z"/>
<path class="st0" d="M319.4,176.3c0.2,0,0.4,0.2,0.4,0.4v14c0,0.2-0.2,0.4-0.4,0.4h-3.6c-0.2,0-0.4-0.2-0.4-0.4v-4.2
	c-1.2,0.5-2.3,0.8-3.5,0.8h-0.3c-2.8,0-4.9-1.7-4.9-5.2v-5.4c0-0.2,0.2-0.4,0.4-0.4h3.6c0.2,0,0.4,0.2,0.4,0.4v4.8
	c0,1.5,0.6,2.3,1.9,2.3h0.1c0.7,0,1.5-0.2,2.3-0.6v-6.5c0-0.2,0.2-0.4,0.4-0.4L319.4,176.3L319.4,176.3z"/>
<path class="st0" d="M329,175.9c3.5,0,6.2,2.2,6.2,6.5v1.6c0,0.4-0.3,0.6-0.6,0.6h-8.1v0.5c0,2,1.4,3,3.2,3h0.1c1.3,0,2.7-0.5,4.3-1
	c0.2-0.1,0.4,0,0.4,0.3v2.7c0,0.3-0.1,0.5-0.3,0.5c-0.9,0.4-3.3,1-5,1h-0.3c-3.8,0-6.9-2.3-6.9-6.9V183c0-4.5,3.1-7,6.7-7L329,175.9
	L329,175.9z M328.7,179.1c-1.4,0-2.2,1-2.3,2.9h4.7c0.1-2-0.6-2.9-2.2-2.9H328.7z"/>
<path class="st0" d="M344.2,175.9c1.4,0,3.1,0.5,4,1c0.2,0.1,0.3,0.2,0.3,0.5v2.7c0,0.2-0.2,0.4-0.4,0.3c-1.4-0.6-2.3-1-3.3-1h-0.2
	c-1.8,0-3.2,1.2-3.2,3.6v1.4c0,2.4,1.4,3.6,3.2,3.6h0.2c0.9,0,1.9-0.4,3.3-1c0.2-0.1,0.4,0,0.4,0.3v2.7c0,0.3-0.1,0.5-0.3,0.5
	c-0.9,0.4-2.6,1-4,1h-0.3c-3.6,0-6.9-2.3-6.9-7V183c0-4.7,3.2-7,6.9-7h0.3V175.9z"/>
<path class="st0" d="M364.5,190.5c0.1,0.3,0,0.5-0.3,0.5h-4c-0.2,0-0.4-0.1-0.5-0.3l-3.3-5.6H355v5.5c0,0.2-0.2,0.4-0.4,0.4H351
	c-0.2,0-0.4-0.2-0.4-0.4v-14c0-0.2,0.2-0.4,0.4-0.4h3.6c0.2,0,0.4,0.2,0.4,0.4v5.1h1.4l2.9-5.2c0.1-0.2,0.3-0.3,0.5-0.3h3.8
	c0.3,0,0.4,0.3,0.3,0.5l-3.6,6.5L364.5,190.5z"/>
<path class="st0" d="M379.4,176.3c0.2,0,0.4,0.2,0.4,0.4v14c0,0.2-0.2,0.4-0.4,0.4h-3.6c-0.2,0-0.4-0.2-0.4-0.4v-5l0.1-3.2h-0.4
	l-1.3,3l-2.6,5.2c-0.1,0.2-0.2,0.4-0.4,0.4h-4.3c-0.2,0-0.4-0.2-0.4-0.4v-14c0-0.2,0.2-0.4,0.4-0.4h3.6c0.2,0,0.4,0.2,0.4,0.4v4.9
	l-0.1,3.4h0.4l1.4-3.1l2.5-5.1c0.1-0.2,0.2-0.4,0.4-0.4L379.4,176.3z"/>
<path class="st0" d="M395.4,176.3c0.2,0,0.4,0.2,0.4,0.4v14c0,0.2-0.2,0.4-0.4,0.4h-3.6c-0.2,0-0.4-0.2-0.4-0.4v-5l0.1-3.2h-0.4
	l-1.3,3l-2.6,5.2c-0.1,0.2-0.2,0.4-0.4,0.4h-4.3c-0.2,0-0.4-0.2-0.4-0.4v-14c0-0.2,0.2-0.4,0.4-0.4h3.6c0.2,0,0.4,0.2,0.4,0.4v4.9
	l-0.1,3.4h0.4l1.4-3.1l2.5-5.1c0.1-0.2,0.2-0.4,0.4-0.4L395.4,176.3z M393.2,170.9v2.2c0,0.2-0.1,0.4-0.2,0.5
	c-0.6,0.4-2.1,1.1-3.9,1.1s-3.3-0.6-3.9-1.1c-0.1-0.1-0.2-0.2-0.2-0.5v-2.2c0-0.3,0.2-0.4,0.5-0.3c1.1,0.5,2.1,0.9,3.7,0.9
	s2.5-0.4,3.7-0.9C393,170.5,393.2,170.6,393.2,170.9z"/>
<path class="st0" d="M18.2,220c0.1,0.3,0,0.5-0.3,0.5h-4c-0.2,0-0.4-0.1-0.5-0.3l-3.3-5.6H8.7v5.5c0,0.2-0.2,0.4-0.4,0.4H4.7
	c-0.2,0-0.4-0.2-0.4-0.4v-14c0-0.2,0.2-0.4,0.4-0.4h3.6c0.2,0,0.4,0.2,0.4,0.4v5.1H10l2.9-5.2c0.1-0.2,0.3-0.3,0.5-0.3h3.8
	c0.3,0,0.4,0.3,0.3,0.5l-3.7,6.5L18.2,220z"/>
<path class="st0" d="M25.7,205.4c3.7,0,6.9,2.4,6.9,6.7v2.2c0,4.3-3.2,6.7-6.9,6.7h-0.3c-3.7,0-6.9-2.4-6.9-6.7v-2.2
	c0-4.3,3.2-6.7,6.9-6.7H25.7z M25.5,208.9c-1.5,0-2.5,1-2.5,3v2.6c0,2,1,3,2.5,3h0.2c1.5,0,2.5-1,2.5-3v-2.6c0-2-1-3-2.5-3H25.5z"/>
<path class="st0" d="M48.6,205.8c0.2,0,0.4,0.2,0.4,0.4v14c0,0.2-0.2,0.4-0.4,0.4H45c-0.2,0-0.4-0.2-0.4-0.4v-11h-3.4l-0.6,7.2
	c-0.2,2.7-1.4,4.5-4.3,4.5h-0.2c-0.9,0-1.8-0.3-2.1-0.5c-0.2-0.1-0.3-0.2-0.3-0.4v-2.5c0-0.2,0.1-0.4,0.4-0.3
	c0.3,0.1,0.6,0.2,0.8,0.2H35c0.7,0,1.1-0.5,1.2-1.6l0.8-9.7c0-0.2,0.2-0.4,0.4-0.4h11.2V205.8z"/>
<path class="st0" d="M65.2,205.8c0.2,0,0.4,0.2,0.4,0.4v14c0,0.2-0.2,0.4-0.4,0.4h-3.6c-0.2,0-0.4-0.2-0.4-0.4v-11h-3.4l-0.6,7.2
	c-0.2,2.7-1.4,4.5-4.3,4.5h-0.2c-0.9,0-1.8-0.3-2.1-0.5c-0.2-0.1-0.3-0.2-0.3-0.4v-2.5c0-0.2,0.1-0.4,0.4-0.3
	c0.3,0.1,0.6,0.2,0.8,0.2h0.1c0.7,0,1.1-0.5,1.2-1.6l0.8-9.7c0-0.2,0.2-0.4,0.4-0.4h11.2V205.8z"/>
<path class="st0" d="M74.9,205.4c3.5,0,6.2,2.2,6.2,6.5v1.6c0,0.4-0.3,0.6-0.6,0.6h-8.1v0.5c0,2,1.4,3,3.2,3h0.1
	c1.3,0,2.7-0.5,4.3-1c0.2-0.1,0.4,0,0.4,0.3v2.7c0,0.3-0.1,0.5-0.3,0.5c-0.9,0.4-3.3,1-5,1h-0.3c-3.8,0-6.9-2.3-6.9-6.9v-1.6
	c0-4.5,3.1-7,6.7-7L74.9,205.4L74.9,205.4z M74.6,208.6c-1.4,0-2.2,1-2.3,2.9H77c0.1-2-0.6-2.9-2.2-2.9H74.6z"/>
<path class="st0" d="M100,217.2c0.2,0,0.4,0.2,0.4,0.4v6.4c0,0.2-0.2,0.4-0.4,0.4h-3.6c-0.2,0-0.4-0.2-0.4-0.4v-3.4h-9.6v3.4
	c0,0.2-0.2,0.4-0.4,0.4h-3.6c-0.2,0-0.4-0.2-0.4-0.4v-6.4c0-0.2,0.2-0.4,0.4-0.4h1.9c0.4-0.2,0.7-0.7,0.8-1.5l0.8-9.5
	c0-0.2,0.2-0.4,0.4-0.4h11.1c0.2,0,0.4,0.2,0.4,0.4v11H100L100,217.2z M89.5,214.3c-0.1,1.2-0.3,2.1-0.6,2.9h4.4v-8h-3.4L89.5,214.3
	z"/>
<path class="st0" d="M124.1,220c0.1,0.3,0,0.5-0.3,0.5h-4c-0.2,0-0.4-0.1-0.5-0.3l-3.3-5.6h-1.1v5.5c0,0.2-0.2,0.4-0.4,0.4h-3.6
	c-0.2,0-0.4-0.2-0.4-0.4v-5.5h-1.1l-3.3,5.6c-0.1,0.2-0.3,0.3-0.5,0.3h-4c-0.3,0-0.4-0.3-0.3-0.5l4.3-7.2l-3.6-6.5
	c-0.1-0.2,0-0.5,0.3-0.5h3.8c0.2,0,0.4,0.1,0.5,0.3l2.9,5.2h1.1v-5.1c0-0.2,0.2-0.4,0.4-0.4h3.6c0.2,0,0.4,0.2,0.4,0.4v5.1h1.1
	l2.9-5.2c0.1-0.2,0.3-0.3,0.5-0.3h3.8c0.3,0,0.4,0.3,0.3,0.5l-3.6,6.5L124.1,220z"/>
</svg>
