<?xml version="1.0" encoding="utf-8"?>
<!-- Generator: Adobe Illustrator 24.0.1, SVG Export Plug-In . SVG Version: 6.00 Build 0)  -->
<svg version="1.1" id="Слой_1" xmlns="http://www.w3.org/2000/svg" xmlns:xlink="http://www.w3.org/1999/xlink" x="0px" y="0px"
	 viewBox="0 0 1000 1000" style="enable-background:new 0 0 1000 1000;" xml:space="preserve">
<style type="text/css">
	.st0{fill-rule:evenodd;clip-rule:evenodd;fill:#FFFFFF;}
</style>
<title>Artboard</title>
<desc>Created with Sketch.</desc>
<g id="Artboard">
	<path id="Path-3" class="st0" d="M226.3,494.7c145.8-63.5,243-105.4,291.6-125.6c138.9-57.8,167.7-67.8,186.5-68.1
		c4.1-0.1,13.4,1,19.4,5.8c5.1,4.1,6.5,9.6,7.1,13.5s1.5,12.8,0.8,19.7c-7.5,79.1-40.1,270.9-56.6,359.5c-7,37.5-20.8,50-34.2,51.3
		c-29,2.7-51.1-19.2-79.2-37.6c-44-28.8-68.9-46.8-111.6-75c-49.4-32.5-17.4-50.4,10.8-79.6c7.4-7.6,135.3-124,137.8-134.6
		c0.3-1.3,0.6-6.2-2.3-8.8s-7.2-1.7-10.4-1c-4.4,1-74.7,47.5-210.9,139.4c-20,13.7-38,20.4-54.2,20c-17.9-0.4-52.2-10.1-77.7-18.4
		c-31.3-10.2-56.2-15.6-54-32.8C190.3,513.3,202.7,504.1,226.3,494.7z"/>
</g>
</svg>
