<?xml version="1.0" encoding="utf-8"?>
<!-- Generator: Adobe Illustrator 24.0.1, SVG Export Plug-In . SVG Version: 6.00 Build 0)  -->
<svg version="1.1" id="Capa_1" xmlns="http://www.w3.org/2000/svg" xmlns:xlink="http://www.w3.org/1999/xlink" x="0px" y="0px"
	 viewBox="0 0 612 612" style="enable-background:new 0 0 612 612;" xml:space="preserve">
<style type="text/css">
	.st0{fill:#FFFFFF;}
</style>
<g>
	<g>
		<path class="st0" d="M559.2,308.3c2.7-4.9,2.7-10.8,0-15.8C510.4,202.8,415.3,141.9,306,141.9S101.6,202.8,52.8,292.6
			c-2.7,4.9-2.7,10.8,0,15.8C101.6,398.1,196.7,459,306,459S510.4,398.1,559.2,308.3z M306,422.1c-67.2,0-121.7-54.5-121.7-121.7
			S238.8,178.8,306,178.8s121.7,54.5,121.7,121.7S373.2,422.1,306,422.1z"/>
		<path class="st0" d="M306,238.5c-5.1,0-10.1,0.6-14.8,1.8c4.8,5.7,7.8,13,7.8,21c0,17.8-14.4,32.2-32.2,32.2c-8,0-15.3-2.9-21-7.8
			c-1.2,4.8-1.8,9.8-1.8,14.8c0,34.3,27.8,62,62,62s62-27.8,62-62S340.3,238.5,306,238.5z"/>
	</g>
</g>
</svg>
