<svg id="Слой_1" data-name="Слой 1" xmlns="http://www.w3.org/2000/svg" xmlns:xlink="http://www.w3.org/1999/xlink" viewBox="0 0 27.41 31.38"><defs><style>.cls-1{fill:url(#linear-gradient);}.cls-2{fill:url(#linear-gradient-2);}.cls-3{fill:url(#linear-gradient-3);}.cls-4{fill:url(#linear-gradient-4);}</style><linearGradient id="linear-gradient" x1="9.17" y1="30.38" x2="14.58" y2="-0.3" gradientUnits="userSpaceOnUse"><stop offset="0.05" stop-color="#0541f0"/><stop offset="0.21" stop-color="#126cf4"/><stop offset="0.44" stop-color="#22a2f9"/><stop offset="0.64" stop-color="#2dcafc"/><stop offset="0.8" stop-color="#34e2fe"/><stop offset="0.9" stop-color="#37ebff"/></linearGradient><linearGradient id="linear-gradient-2" x1="13.03" y1="18.35" x2="18.35" y2="13.03" gradientUnits="userSpaceOnUse"><stop offset="0.06" stop-color="#37ebff"/><stop offset="0.19" stop-color="#36e7ff"/><stop offset="0.32" stop-color="#32dafe"/><stop offset="0.45" stop-color="#2cc6fc"/><stop offset="0.58" stop-color="#23a9f9"/><stop offset="0.71" stop-color="#1883f6"/><stop offset="0.85" stop-color="#0b56f2"/><stop offset="0.9" stop-color="#0541f0"/></linearGradient><linearGradient id="linear-gradient-3" x1="18.14" y1="27.71" x2="25.92" y2="6.36" gradientUnits="userSpaceOnUse"><stop offset="0.05" stop-color="#37ebff"/><stop offset="0.16" stop-color="#2dc8fc"/><stop offset="0.34" stop-color="#1f98f8"/><stop offset="0.51" stop-color="#1472f4"/><stop offset="0.66" stop-color="#0c57f2"/><stop offset="0.8" stop-color="#0747f1"/><stop offset="0.9" stop-color="#0541f0"/></linearGradient><linearGradient id="linear-gradient-4" x1="12.01" y1="20.72" x2="22.96" y2="9.77" gradientUnits="userSpaceOnUse"><stop offset="0.11" stop-color="#0541f0"/><stop offset="0.89" stop-color="#37ebff"/></linearGradient></defs><path class="cls-1" d="M18.28,27.76a11.72,11.72,0,0,1,0-23.43v-4a15.69,15.69,0,0,0,0,31.38Z" transform="translate(-2.59 -0.36)"/><circle class="cls-2" cx="15.69" cy="15.69" r="3.77"/><path class="cls-3" d="M18.28,4.33h0v4h0a7.74,7.74,0,0,1,0,15.48h0v4h0a11.72,11.72,0,1,0,0-23.43Z" transform="translate(-2.59 -0.36)"/><path class="cls-4" d="M18.28,19.81a3.77,3.77,0,1,1,3.77-3.76h4a7.74,7.74,0,1,0-7.74,7.74Z" transform="translate(-2.59 -0.36)"/></svg>