<?xml version="1.0" encoding="utf-8"?>
<!-- Generator: Adobe Illustrator 24.3.0, SVG Export Plug-In . SVG Version: 6.00 Build 0)  -->
<svg version="1.1" id="Layer_1" xmlns="http://www.w3.org/2000/svg" xmlns:xlink="http://www.w3.org/1999/xlink" x="0px" y="0px"
	 viewBox="0 0 943 375" style="enable-background:new 0 0 943 375;" xml:space="preserve">
<style type="text/css">
	.st0{fill:url(#SVGID_1_);}
	.st1{fill:url(#SVGID_2_);}
	.st2{fill:url(#SVGID_3_);}
	.st3{fill:url(#SVGID_4_);}
	.st4{fill:#505569;}
	.st5{fill:#0541F0;}
</style>
<linearGradient id="SVGID_1_" gradientUnits="userSpaceOnUse" x1="168.6291" y1="972.7232" x2="233.258" y2="606.1989" gradientTransform="matrix(1 0 0 1 -90 -614)">
	<stop  offset="5.000000e-02" style="stop-color:#0541F0"/>
	<stop  offset="0.21" style="stop-color:#126CF4"/>
	<stop  offset="0.44" style="stop-color:#22A2F9"/>
	<stop  offset="0.64" style="stop-color:#2DCAFC"/>
	<stop  offset="0.8" style="stop-color:#34E2FE"/>
	<stop  offset="0.9" style="stop-color:#37EBFF"/>
</linearGradient>
<path class="st0" d="M187.5,327.5c-77.3,0-140-62.7-140-140s62.7-140,140-140V0C84,0,0,84,0,187.5S84,375,187.5,375V327.5z"/>
<linearGradient id="SVGID_2_" gradientUnits="userSpaceOnUse" x1="155.6802" y1="743.3198" x2="219.3198" y2="679.6802" gradientTransform="matrix(1 0 0 1 0 -524)">
	<stop  offset="6.000000e-02" style="stop-color:#37EBFF"/>
	<stop  offset="0.19" style="stop-color:#36E7FF"/>
	<stop  offset="0.32" style="stop-color:#32DAFE"/>
	<stop  offset="0.45" style="stop-color:#2CC6FC"/>
	<stop  offset="0.58" style="stop-color:#23A9F9"/>
	<stop  offset="0.71" style="stop-color:#1883F6"/>
	<stop  offset="0.85" style="stop-color:#0B56F2"/>
	<stop  offset="0.9" style="stop-color:#0541F0"/>
</linearGradient>
<circle class="st1" cx="187.5" cy="187.5" r="45"/>
<linearGradient id="SVGID_3_" gradientUnits="userSpaceOnUse" x1="275.8007" y1="940.8815" x2="368.691" y2="685.6707" gradientTransform="matrix(1 0 0 1 -90 -614)">
	<stop  offset="5.000000e-02" style="stop-color:#37EBFF"/>
	<stop  offset="0.16" style="stop-color:#2DC8FC"/>
	<stop  offset="0.34" style="stop-color:#1F98F8"/>
	<stop  offset="0.51" style="stop-color:#1472F4"/>
	<stop  offset="0.66" style="stop-color:#0C57F2"/>
	<stop  offset="0.8" style="stop-color:#0747F1"/>
	<stop  offset="0.9" style="stop-color:#0541F0"/>
</linearGradient>
<path class="st2" d="M187.5,47.5L187.5,47.5V95l0,0c51.1,0,92.5,41.4,92.5,92.5S238.6,280,187.5,280l0,0v47.5l0,0
	c77.3,0,140-62.7,140-140S264.8,47.5,187.5,47.5z"/>
<linearGradient id="SVGID_4_" gradientUnits="userSpaceOnUse" x1="202.5093" y1="857.335" x2="333.3293" y2="726.505" gradientTransform="matrix(1 0 0 1 -90 -614)">
	<stop  offset="0.11" style="stop-color:#0541F0"/>
	<stop  offset="0.89" style="stop-color:#37EBFF"/>
</linearGradient>
<path class="st3" d="M187.5,232.5c-24.9,0-45-20.1-45-45s20.1-45,45-45s45,20.1,45,45H280c0-51.1-41.4-92.5-92.5-92.5
	S95,136.4,95,187.5s41.4,92.5,92.5,92.5V232.5z"/>
<path class="st4" d="M453.7,138.5l-48.6-52.2h-7.6v101.2h21.3v-57l31.9,33.5h6l31.9-33.5v57H510V86.3h-7.7L453.7,138.5z
	 M550.9,147.6V87.5h-21.3v101.2h8.2l62.1-61.3v60.1h21.3V86.3H613L550.9,147.6z M687,105.7c11.1,0,20.9,6,27.4,15.8l15-14.5
	c-9.8-13.6-25.6-21.7-42.4-21.8c-28.8,0-53,22.7-53,52.2s24.3,52.2,53,52.2c16.8-0.1,32.6-8.2,42.4-21.8l-15-14.5
	c-6.5,9.8-16.3,15.8-27.4,15.8c-17.2,0-31.2-13.2-31.2-31.8S669.9,105.7,687,105.7L687,105.7z M764.4,147.6V87.5h-21.3v101.2h8.2
	l62.2-61.3v60.1h21.3V86.3h-8.2L764.4,147.6z M900.5,169.3c-17.2,0-31.2-13.2-31.2-31.8s14-31.8,31.2-31.8c11.1,0,20.9,6,27.4,15.8
	l15-14.5c-9.8-13.6-25.6-21.7-42.4-21.8c-28.8,0-53.1,22.7-53.1,52.2s24.3,52.2,53.1,52.2c16.8,0,32.6-8.1,42.5-21.8l-15-14.5
	C921.5,163.3,911.6,169.3,900.5,169.3L900.5,169.3z"/>
<g>
	<path class="st5" d="M420.5,236c2.3,0,4.5,0.3,6.7,0.9c1.9,0.5,3.7,1.2,5.3,2.2c1.3,0.8,2.5,1.7,3.7,2.6c0.8,0.7,1.6,1.4,2.3,2.2
		l0.7,0.9l-4.6,4.6c-0.1-0.2-0.3-0.4-0.6-0.7c-0.5-0.6-1.1-1.2-1.7-1.7c-0.9-0.8-1.8-1.5-2.8-2.1c-1.2-0.7-2.6-1.2-3.9-1.6
		c-1.7-0.5-3.4-0.8-5.1-0.8c-9.5,0-17.1,7.7-17.1,17.1s7.7,17.1,17.1,17.1c1.8,0,3.5-0.2,5.2-0.8c1.4-0.4,2.8-1,4.1-1.8
		c1-0.6,2-1.3,2.9-2.1c0.7-0.5,1.3-1.1,1.8-1.8l0.5-0.8l4.6,4.6c-0.2,0.2-0.4,0.6-0.8,1c-1.9,1.9-3.9,3.6-6.2,5
		c-9.6,5.4-21.5,3.9-29.5-3.7c-9.3-9.2-9.4-24.2-0.1-33.5l0.1-0.1C407.8,238.3,414,235.8,420.5,236z"/>
	<path class="st5" d="M443.5,236.7h34.9v6.6h-13.8v39.5h-7.2v-39.5h-13.8v-6.6H443.5z"/>
	<path class="st5" d="M477.1,282.8l19.1-46.1h7.2l19.1,46.1H515l-5-12.2h-20.4l-5,12.2H477.1z M499.9,244.9l-7.6,19.1h15.2
		L499.9,244.9z"/>
	<path class="st5" d="M530.5,236.7H549c4.1-0.1,8.1,1.5,11,4.3c5.8,5.6,5.9,14.9,0.3,20.7c-0.1,0.1-0.2,0.2-0.3,0.3
		c-2.9,2.9-6.9,4.4-11,4.4h-11.2v16.5h-7.2L530.5,236.7L530.5,236.7z M549,243.3h-11.2v16.5H549c2.2,0,4.3-0.8,5.8-2.4
		c3.2-3.2,3.2-8.5,0-11.7C553.3,244.1,551.2,243.2,549,243.3z"/>
	<path class="st5" d="M592.8,282.8H575v-46.1h7.2v16.5h10.6c4.1-0.1,8.1,1.5,11,4.3c5.8,5.7,5.9,14.9,0.3,20.7
		c-0.1,0.1-0.2,0.2-0.3,0.3C600.9,281.4,596.9,282.9,592.8,282.8z M582.2,276.2h10.6c2.2,0,4.3-0.8,5.8-2.4c3.2-3.2,3.2-8.5,0-11.7
		c-1.5-1.6-3.6-2.4-5.8-2.4h-10.6V276.2z M621.4,236.7v46.1h-7.3v-46.1L621.4,236.7L621.4,236.7z"/>
	<path class="st5" d="M673.8,282.8h-7.2v-33.3l-25.7,33.3h-6.2v-46.1h7.2V270l25.7-33.3h6.2V282.8z M651.1,224.8
		c1.8,1.8,4.8,1.8,6.6,0c0.9-0.9,1.4-2.1,1.3-3.3h4.9c0.1,2.5-0.9,4.9-2.7,6.6c-3.9,3.5-9.8,3.5-13.7,0c-1.8-1.7-2.8-4.1-2.7-6.6h5
		C649.8,222.7,650.2,223.9,651.1,224.8L651.1,224.8z"/>
	<path class="st5" d="M704.5,276.6c-9.3-9.2-9.4-24.2-0.2-33.5c0.1-0.1,0.1-0.1,0.2-0.2c9.7-9.2,25-9.2,34.7,0
		c9.3,9.2,9.4,24.2,0.2,33.5c-0.1,0.1-0.1,0.1-0.2,0.2C729.5,285.8,714.3,285.8,704.5,276.6z M709.7,247.6
		c-6.8,6.7-6.9,17.7-0.2,24.6c6.7,6.8,17.7,6.9,24.6,0.2c6.8-6.7,6.9-17.7,0.2-24.6c-3.3-3.3-7.7-5.2-12.4-5.2
		C717.3,242.5,712.9,244.3,709.7,247.6L709.7,247.6z"/>
	<path class="st5" d="M778.5,236c2.3,0,4.5,0.3,6.7,0.9c1.9,0.5,3.7,1.2,5.3,2.2c1.3,0.8,2.5,1.7,3.7,2.6c0.8,0.7,1.6,1.4,2.3,2.2
		l0.7,0.9l-4.6,4.6c-0.1-0.2-0.3-0.4-0.6-0.7c-0.5-0.6-1.1-1.2-1.7-1.7c-0.9-0.8-1.8-1.5-2.8-2.1c-1.2-0.7-2.6-1.2-3.9-1.6
		c-1.7-0.5-3.4-0.8-5.1-0.8c-9.5,0-17.1,7.7-17.1,17.1s7.7,17.1,17.1,17.1l0,0c1.7,0,3.5-0.2,5.2-0.8c1.4-0.4,2.8-1,4.1-1.8
		c1-0.6,2-1.3,2.9-2.1c0.7-0.5,1.3-1.1,1.8-1.8l0.5-0.8l4.6,4.6c-0.2,0.3-0.5,0.7-0.8,1c-0.7,0.8-1.5,1.5-2.3,2.2
		c-1.2,1-2.5,2-3.9,2.8c-9.6,5.4-21.5,3.9-29.5-3.7c-9.3-9.2-9.4-24.2-0.1-33.5l0.1-0.1C765.8,238.3,772.1,235.8,778.5,236z"/>
	<path class="st5" d="M814.1,236.7v22.4l20.8-22.4h9.2l-17.8,19.1l19.1,27h-8.9L821.3,261l-7.2,8v13.8h-7.2v-46.1L814.1,236.7
		L814.1,236.7z"/>
	<path class="st5" d="M854.4,276.6c-9.3-9.2-9.4-24.2-0.1-33.5l0.1-0.1c9.8-9.2,25-9.2,34.7,0c9.3,9.2,9.4,24.2,0.1,33.5l-0.1,0.1
		C879.3,285.8,864.1,285.8,854.4,276.6z M859.6,247.6c-6.8,6.7-6.9,17.7-0.2,24.6c6.7,6.8,17.7,6.9,24.6,0.2s6.9-17.7,0.2-24.6
		c-3.3-3.3-7.7-5.2-12.4-5.2C867.2,242.5,862.8,244.3,859.6,247.6L859.6,247.6z"/>
	<path class="st5" d="M941.6,236.7v46.1h-7.2v-39.5h-16.8v7.2c0.1,5.6-0.3,11.1-1,16.6c-0.7,4.5-1.6,7.9-2.9,10.2
		c-1,2-2.4,3.6-4.3,4.8c-1.7,0.9-3.7,1.4-5.7,1.3c-0.8,0-1.7-0.1-2.5-0.3c-0.7-0.1-1.4-0.3-2.1-0.5l-0.7-0.2v-6.9
		c1.2,0.4,2.4,0.6,3.6,0.6c1.2,0,2.3-0.3,3.3-1c1.2-0.9,2-2.2,2.6-3.6c1-2.5,1.6-5.2,1.8-7.9c0.4-4.4,0.6-8.9,0.6-13.3v-13.8h31.3
		V236.7z"/>
</g>
</svg>
