<?xml version="1.0" encoding="utf-8"?>
<!-- Generator: Adobe Illustrator 24.0.1, SVG Export Plug-In . SVG Version: 6.00 Build 0)  -->
<svg version="1.1" id="Слой_1" xmlns="http://www.w3.org/2000/svg" xmlns:xlink="http://www.w3.org/1999/xlink" x="0px" y="0px"
	 viewBox="0 0 1000 1000" style="enable-background:new 0 0 1000 1000;" xml:space="preserve">
<style type="text/css">
	.st0{fill:#FFFFFF;}
</style>
<title>Artboard</title>
<desc>Created with Sketch.</desc>
<g>
	<g>
		<path class="st0" d="M489.6,683.3l105,0c23.4-73.1,78-144,78-144l0,0c29.2-37.3,46.7-84.2,46.7-135.3
			c0.2-121.2-98.1-219.5-219.3-219.5S280.5,282.7,280.5,404c0,51.1,17.4,98,46.7,135.3l0,0c0,0,54.6,70.9,78,144H489.6"/>
		<rect x="401.2" y="704.1" class="st0" width="197.5" height="42.5"/>
		<path class="st0" d="M401.2,781c0,19,15.4,34.5,34.5,34.5h128.6c19,0,34.5-15.4,34.5-34.5v-13.8H401.2V781L401.2,781z"/>
	</g>
</g>
</svg>
