<?xml version="1.0" encoding="utf-8"?>
<!-- Generator: Adobe Illustrator 24.0.1, SVG Export Plug-In . SVG Version: 6.00 Build 0)  -->
<svg version="1.1" id="Слой_1" xmlns="http://www.w3.org/2000/svg" xmlns:xlink="http://www.w3.org/1999/xlink" x="0px" y="0px"
	 viewBox="0 0 1000 1000" style="enable-background:new 0 0 1000 1000;" xml:space="preserve">
<style type="text/css">
	.st0{fill:#FFFFFF;}
</style>
<title>Artboard</title>
<desc>Created with Sketch.</desc>
<g>
	<g>
		<path class="st0" d="M500,184.5c-121.2,0-219.5,98.2-219.5,219.5c0,51.1,17.4,98,46.7,135.3l0,0c0,0,54.6,70.9,78,144h84.4V521.2
			c-31.4-5-55.5-32.3-55.5-65c0-5.7,4.6-10.3,10.3-10.3c5.7,0,10.3,4.6,10.3,10.3c0,24.9,20.3,45.2,45.2,45.2
			c24.9,0,45.2-20.3,45.2-45.2c0-5.7,4.6-10.3,10.3-10.3s10.3,4.6,10.3,10.3c0,32.8-24.1,60-55.5,65v162.1h84.4
			c23.4-73.1,78-144,78-144l0,0c29.2-37.3,46.7-84.2,46.7-135.3C719.5,282.8,621.2,184.5,500,184.5z"/>
		<rect x="401.2" y="704.1" class="st0" width="197.5" height="42.5"/>
		<path class="st0" d="M401.2,781c0,19,15.4,34.5,34.5,34.5h128.6c19,0,34.5-15.4,34.5-34.5v-13.8H401.2V781L401.2,781z"/>
	</g>
</g>
</svg>
